<?xml version="1.0" encoding="UTF-8"?>
<svg width="25px" height="25px" viewBox="0 0 25 25" version="1.1" xmlns="http://www.w3.org/2000/svg" xmlns:xlink="http://www.w3.org/1999/xlink">
    <!-- Generator: Sketch 42 (36781) - http://www.bohemiancoding.com/sketch -->
    <title>call-center-worker-with-headset</title>
    <desc>Created with Sketch.</desc>
    <defs></defs>
    <g id="Screens-Only-Copy-3" stroke="none" stroke-width="1" fill="none" fill-rule="evenodd">
        <g id="Farmer-Profile---Agricultural-Info" transform="translate(-317.000000, -45.000000)" fill="#16392C">
            <g id="Workarea">
                <g id="Group-2" transform="translate(0.000000, -2.000000)">
                    <g id="Group-9">
                        <g id="actionbar">
                            <g id="call-center-worker-with-headset" transform="translate(317.000000, 47.000000)">
                                <g id="Capa_1">
                                    <path d="M10.536683,13.7244186 C10.536683,14.4451412 9.9620098,15.029402 9.25306373,15.029402 C8.5441585,15.029402 7.96948529,14.4451827 7.96948529,13.7244186 C7.96948529,13.0037375 8.5441585,12.4194767 9.25306373,12.4194767 C9.9620098,12.4195183 10.536683,13.0037791 10.536683,13.7244186 Z M15.7469363,12.4195183 C15.038031,12.4195183 14.463317,13.0037375 14.463317,13.7245017 C14.463317,14.4451827 15.038031,15.029402 15.7469363,15.029402 C16.4558415,15.029402 17.0305964,14.4451827 17.0305964,13.7245017 C17.0305556,13.0037791 16.4558824,12.4195183 15.7469363,12.4195183 Z M25,12.9970515 L25,15.4770764 C25,16.7221761 24.0071487,17.7315199 22.7823529,17.7315199 L21.1731209,17.7315199 C19.5785539,22.2325166 15.5066993,24.9511628 12.5,24.9511628 C9.49330065,24.9511628 5.42144608,22.2325166 3.82687908,17.7314784 L2.21764706,17.7314784 C0.992851307,17.7314784 0,16.7221761 0,15.4770349 L0,12.99701 C0,12.1402409 0.470220588,11.3951412 1.1625817,11.0137043 C1.18582516,7.49273256 2.19526144,4.74285714 4.16719771,2.84181894 C6.12316176,0.956187708 8.92671569,0 12.5,0 C16.0732843,0 18.8768382,0.956187708 20.8328023,2.84177741 C22.8046977,4.74281561 23.8140931,7.49273256 23.8374183,11.0136628 C24.5297794,11.3951412 25,12.1402409 25,12.9970515 Z M20.3063317,13.7326827 C20.3063317,13.1525748 20.2771242,12.6075166 20.2339869,12.0793605 C19.2497958,11.1639535 17.4630719,10.4693522 15.2081291,10.2112542 C15.5042075,10.5497093 15.7599673,10.9949336 15.9150735,11.5809801 C14.5338644,10.4747924 11.8227124,10.7380814 9.77201797,8.26266611 C9.65445261,8.1244186 9.55277778,7.99231728 9.46486928,7.87159468 C9.46384804,7.8701412 9.46270425,7.86901993 9.46168301,7.86760797 L9.4619281,7.86769103 C9.09709967,7.36611296 8.97271242,7.06777409 8.96576797,7.39800664 C8.90559641,10.2432309 6.92189542,12.4613372 4.71911765,12.7742525 C4.70518791,13.0871678 4.69379085,13.4031146 4.69379085,13.7327243 C4.69379085,14.9353405 4.88696895,16.0313953 5.21540033,17.0191445 C6.45273693,18.5364618 8.49611928,18.9649086 10.3046977,19.0785299 C10.6404412,18.5355066 11.39375,18.1563953 12.2710376,18.1563953 C13.4604575,18.1563953 14.4246324,18.8521595 14.4246324,19.7105482 C14.4246324,20.5688538 13.4604167,21.2646179 12.2710376,21.2646179 C11.3561275,21.2646179 10.5764706,20.8522425 10.2644199,20.2715947 C9.0004085,20.1968854 7.61086601,19.9778239 6.37242647,19.3832641 C8.11401144,21.9930233 10.8139297,23.3730066 12.5,23.3730066 C15.149469,23.3730066 20.3063317,19.9703904 20.3063317,13.7326827 Z M22.5022467,10.7425664 C22.3611111,4.59842193 18.9113971,1.35274086 12.5,1.35274086 C6.08860294,1.35274086 2.63892974,4.59842193 2.49775327,10.7425664 L3.35098039,10.7425664 C3.66294935,8.67167774 4.32230392,6.96856312 5.32340686,5.65901163 C6.91870915,3.57230066 9.33325163,2.51420266 12.5,2.51420266 C15.6667484,2.51420266 18.0812908,3.57230066 19.6766748,5.65901163 C20.6776961,6.96852159 21.3370915,8.67167774 21.6490605,10.7425664 L22.5022467,10.7425664 L22.5022467,10.7425664 Z" id="Shape"></path>
                                </g>
                            </g>
                        </g>
                    </g>
                </g>
            </g>
        </g>
    </g>
</svg>