<?xml version="1.0" encoding="UTF-8"?>
<svg width="70px" height="72px" viewBox="0 0 70 72" version="1.1" xmlns="http://www.w3.org/2000/svg" xmlns:xlink="http://www.w3.org/1999/xlink">
    <!-- Generator: Sketch 42 (36781) - http://www.bohemiancoding.com/sketch -->
    <title>farmer</title>
    <desc>Created with Sketch.</desc>
    <defs></defs>
    <g id="Screens-Only-Copy-3" stroke="none" stroke-width="1" fill="none" fill-rule="evenodd">
        <g id="Farmer-Search" transform="translate(-62.000000, -137.000000)" fill="#757575">
            <g id="Workarea">
                <g id="Group-2" transform="translate(20.000000, 111.000000)">
                    <g id="btn-label" transform="translate(42.000000, 26.000000)">
                        <g id="farmer">
                            <g id="Capa_1">
                                <g id="Group">
                                    <path d="M60.7080349,51.2937697 C60.6377293,51.2197298 60.5576419,51.1553074 60.4699127,51.1020293 C58.4931004,49.5210867 56.2722052,48.2332505 53.8729476,47.3050803 C53.8108952,47.2747011 53.745786,47.2496649 53.6779258,47.2308878 C51.2118777,46.3005803 48.5616594,45.7493266 45.7981878,45.6479606 C45.5900218,45.359434 45.2516376,45.1708995 44.8684716,45.1708995 C44.4853057,45.1708995 44.1467686,45.359434 43.9387555,45.6479606 C41.175131,45.7494793 38.5249127,46.3005803 36.0590175,47.2308878 C35.9910044,47.2498176 35.9257424,47.2748537 35.8635371,47.305233 C33.4644323,48.2335559 31.2435371,49.5212394 29.2668777,51.1020293 C29.1789956,51.1553074 29.0989083,51.2197298 29.0284498,51.2939223 C23.4367031,55.8781367 19.8631878,62.832391 19.8631878,70.6050532 C19.8631878,71.2375218 20.3762664,71.75 21.009476,71.75 C21.6426856,71.75 22.1557642,71.2375218 22.1557642,70.6050532 C22.1557642,64.4028 24.6615502,58.7746995 28.7137555,54.6753319 L28.7137555,70.357592 C28.7137555,70.4426234 28.72369,70.5253649 28.7412664,70.6050532 C28.8545197,71.1182947 29.3119651,71.5025388 29.8600437,71.5025388 C30.4081223,71.5025388 30.8654148,71.1182947 30.978821,70.6050532 C30.9963974,70.5253649 31.0063319,70.4426234 31.0063319,70.357592 L31.0063319,52.6472495 C32.3068341,51.6435128 33.7186026,50.7773223 35.2200873,50.0706612 L35.2200873,59.7016484 C35.2200873,60.334117 35.7331659,60.8465952 36.3663755,60.8465952 L53.3704148,60.8465952 C54.0036245,60.8465952 54.5167031,60.334117 54.5167031,59.7016484 L54.5167031,50.0706612 C56.0181878,50.7773223 57.4301092,51.6433601 58.7304585,52.6472495 L58.7304585,70.357592 C58.7304585,70.4426234 58.740393,70.5253649 58.7579694,70.6050532 C58.8712227,71.1182947 59.3286681,71.5025388 59.8767467,71.5025388 C60.4248253,71.5025388 60.8821179,71.1182947 60.995524,70.6050532 C61.0131004,70.5253649 61.0230349,70.4426234 61.0230349,70.357592 L61.0230349,54.6751793 C65.075393,58.7745468 67.5810262,64.4026473 67.5810262,70.6050532 C67.5810262,71.2375218 68.0941048,71.75 68.7273144,71.75 C69.360524,71.75 69.8736026,71.2375218 69.8736026,70.6050532 C69.8734498,62.832391 66.2997817,55.8781367 60.7080349,51.2937697 Z M37.5123581,58.5567016 L37.5123581,49.140659 C39.4755677,48.467583 41.559214,48.0555548 43.7218777,47.9476245 L43.7218777,50.8959388 C43.7218777,51.5284074 44.2349563,52.0408856 44.8681659,52.0408856 C45.5013755,52.0408856 46.0144541,51.5284074 46.0144541,50.8959388 L46.0144541,47.9476245 C48.1769651,48.0555548 50.2606114,48.467583 52.223821,49.1405064 L52.223821,58.5567016 L37.5123581,58.5567016 Z" id="Shape"></path>
                                    <path d="M23.1822271,21.8767277 L23.1822271,1.14494681 C23.1822271,0.512478191 22.6691485,0 22.0359389,0 C21.4027293,0 20.8896507,0.512478191 20.8896507,1.14494681 L20.8896507,20.7317809 L16.2612445,20.7317809 L16.2612445,1.14494681 C16.2612445,0.512478191 15.7481659,0 15.1149563,0 C14.4817467,0 13.9686681,0.512478191 13.9686681,1.14494681 L13.9686681,20.7317809 L9.34010917,20.7317809 L9.34010917,1.14494681 C9.34010917,0.512478191 8.82703057,0 8.19382096,0 C7.56061135,0 7.04753275,0.512478191 7.04753275,1.14494681 L7.04753275,20.7317809 L2.41912664,20.7317809 L2.41912664,1.14494681 C2.41912664,0.512478191 1.90604803,0 1.27283843,0 C0.639628821,0 0.126550218,0.512478191 0.126550218,1.14494681 L0.126550218,21.8767277 C0.126550218,25.1412 2.78532751,27.796866 6.05362445,27.796866 L10.5081004,27.796866 L10.5081004,70.6050532 C10.5081004,71.2375218 11.021179,71.75 11.6543886,71.75 C12.2875983,71.75 12.8006769,71.2375218 12.8006769,70.6050532 L12.8006769,27.796866 L17.2551528,27.796866 C20.5232969,27.796866 23.1822271,25.1412 23.1822271,21.8767277 Z M2.60543668,23.0216745 L20.7033406,23.0216745 C20.2220524,24.4638495 18.8585808,25.5069723 17.2551528,25.5069723 L6.05362445,25.5069723 C4.45019651,25.5069723 3.08672489,24.4638495 2.60543668,23.0216745 Z" id="Shape"></path>
                                    <path d="M26.7303712,27.796866 L31.8545852,27.796866 C31.814083,28.2169851 31.7923799,28.6396995 31.7923799,29.0625665 C31.7923799,36.2642819 37.6581659,42.1232037 44.8683188,42.1232037 C52.0783188,42.1232037 57.9441048,36.2642819 57.9441048,29.0625665 C57.9441048,28.6396995 57.9222489,28.2169851 57.8817467,27.796866 L62.9633188,27.796866 C63.5965284,27.796866 64.109607,27.2843878 64.109607,26.6519191 C64.109607,26.0194505 63.5965284,25.5069723 62.9633188,25.5069723 L57.4568559,25.5069723 L54.7960917,14.4628154 C54.5332096,13.3719101 53.8601092,12.4675548 52.9008952,11.9164537 C51.9413755,11.3655053 50.8207642,11.2391032 49.7440175,11.5610622 L44.9896725,12.9827809 L40.2354803,11.5610622 C39.1624017,11.2398665 38.0391921,11.3635207 37.0731004,11.9088207 C36.1068559,12.4539681 35.4212227,13.3508431 35.1425983,14.4345734 L32.2949127,25.5068197 L26.7308297,25.5068197 C26.0976201,25.5068197 25.5845415,26.0192979 25.5845415,26.6517665 C25.5845415,27.2842351 26.0971616,27.796866 26.7303712,27.796866 Z M38.200131,13.9025548 C38.6179913,13.6666957 39.1070742,13.6140282 39.5773581,13.7546277 L44.6604585,15.2748117 C44.8750437,15.3389287 45.1033843,15.3389287 45.3181223,15.2748117 L50.4013755,13.7546277 C50.8682969,13.6150968 51.3500437,13.6673064 51.7576638,13.9014862 C52.1655895,14.1358186 52.4529258,14.5254059 52.5669432,14.9986505 L55.0987118,25.5069723 L34.66131,25.5069723 L37.3624236,15.0044516 C37.4845415,14.529833 37.7819651,14.1385665 38.200131,13.9025548 Z M55.6513755,29.0625665 C55.6513755,35.0014819 50.8141921,39.8333101 44.8681659,39.8333101 C38.9221397,39.8333101 34.0848035,35.0016346 34.0848035,29.0625665 C34.0848035,28.6387835 34.1124672,28.2160691 34.1615284,27.796866 L55.5746507,27.796866 C55.6237118,28.2162218 55.6513755,28.6390888 55.6513755,29.0625665 Z" id="Shape"></path>
                                    <path d="M53.3696507,63.1369468 L44.0082969,63.1369468 C43.3750873,63.1369468 42.8620087,63.649425 42.8620087,64.2818936 C42.8620087,64.9143622 43.3750873,65.4268404 44.0082969,65.4268404 L53.3696507,65.4268404 C54.0028603,65.4268404 54.5159389,64.9143622 54.5159389,64.2818936 C54.5159389,63.649425 54.0028603,63.1369468 53.3696507,63.1369468 Z" id="Shape"></path>
                                    <path d="M39.4231441,63.1369468 L36.3663755,63.1369468 C35.7331659,63.1369468 35.2200873,63.649425 35.2200873,64.2818936 C35.2200873,64.9143622 35.7331659,65.4268404 36.3663755,65.4268404 L39.4231441,65.4268404 C40.0563537,65.4268404 40.5694323,64.9143622 40.5694323,64.2818936 C40.5694323,63.649425 40.0563537,63.1369468 39.4231441,63.1369468 Z" id="Shape"></path>
                                </g>
                            </g>
                        </g>
                    </g>
                </g>
            </g>
        </g>
    </g>
</svg>