<?xml version="1.0" encoding="UTF-8"?>
<svg width="62px" height="72px" viewBox="0 0 62 72" version="1.1" xmlns="http://www.w3.org/2000/svg" xmlns:xlink="http://www.w3.org/1999/xlink">
    <!-- Generator: Sketch 42 (36781) - http://www.bohemiancoding.com/sketch -->
    <title>invoice</title>
    <desc>Created with Sketch.</desc>
    <defs></defs>
    <g id="Screens-Only-Copy-3" stroke="none" stroke-width="1" fill="none" fill-rule="evenodd">
        <g id="Farmer-Search" transform="translate(-62.000000, -275.000000)" fill="#757575">
            <g id="Workarea">
                <g id="Group-2" transform="translate(20.000000, 250.000000)">
                    <g id="btn-label" transform="translate(42.000000, 25.000000)">
                        <g id="invoice">
                            <g id="Layer_1">
                                <g id="Group">
                                    <path d="M13.1620135,55.0923509 L13.1501441,55.0923509 C12.4924414,55.0923509 11.964464,55.6289123 11.964464,56.2899649 C11.964464,56.9510175 12.5043108,57.4875789 13.1620135,57.4875789 C13.8197162,57.4875789 14.3535586,56.9510175 14.3535586,56.2899649 C14.3535586,55.6289123 13.8197162,55.0923509 13.1620135,55.0923509 Z" id="Shape"></path>
                                    <path d="M20.3115631,55.0923509 L20.2996937,55.0923509 C19.641991,55.0923509 19.1140135,55.6289123 19.1140135,56.2899649 C19.1140135,56.9510175 19.6538604,57.4875789 20.3115631,57.4875789 C20.9692658,57.4875789 21.5031081,56.9510175 21.5031081,56.2899649 C21.5031081,55.6289123 20.9692658,55.0923509 20.3115631,55.0923509 Z" id="Shape"></path>
                                    <path d="M29.8085946,38.325193 L20.2758153,38.325193 C19.6168559,38.325193 19.0842703,38.8617544 19.0842703,39.522807 C19.0842703,40.1838596 19.6168559,40.7204211 20.2758153,40.7204211 L29.8085946,40.7204211 C30.4675541,40.7204211 31.0001396,40.1838596 31.0001396,39.522807 C31.0001396,38.8617544 30.4675541,38.325193 29.8085946,38.325193 Z" id="Shape"></path>
                                    <path d="M25.0421351,45.5111579 L20.2758153,45.5111579 C19.6168559,45.5111579 19.0842703,46.0477193 19.0842703,46.7087719 C19.0842703,47.3698246 19.6168559,47.906386 20.2758153,47.906386 L25.0421351,47.906386 C25.7010946,47.906386 26.2336802,47.3698246 26.2336802,46.7087719 C26.2338198,46.0477193 25.7010946,45.5111579 25.0421351,45.5111579 Z" id="Shape"></path>
                                    <path d="M45.2992387,41.9181754 C43.9849505,41.9181754 42.916009,40.8439298 42.916009,39.522807 C42.916009,38.8617544 42.3834234,38.325193 41.724464,38.325193 C41.0655045,38.325193 40.5329189,38.8617544 40.5329189,39.522807 C40.5329189,41.7480702 42.0569459,43.608 44.1076937,44.1434386 L44.1076937,44.3135439 C44.1076937,44.9745965 44.6402793,45.5111579 45.2992387,45.5111579 C45.9581982,45.5111579 46.4907838,44.9745965 46.4907838,44.3135439 L46.4907838,44.1434386 C48.5415315,43.6081404 50.0655586,41.7480702 50.0655586,39.522807 C50.0655586,36.8807018 47.9278153,34.7322105 45.2992387,34.7322105 C43.9849505,34.7322105 42.916009,33.6579649 42.916009,32.3368421 C42.916009,31.0158596 43.9848108,29.9414737 45.2992387,29.9414737 C46.613527,29.9414737 47.6824685,31.0157193 47.6824685,32.3368421 C47.6824685,32.9978947 48.2150541,33.5344561 48.8740135,33.5344561 C49.532973,33.5344561 50.0655586,32.9978947 50.0655586,32.3368421 C50.0655586,30.1115789 48.5415315,28.2516491 46.4907838,27.7162105 L46.4907838,27.5461053 C46.4907838,26.8850526 45.9581982,26.3484912 45.2992387,26.3484912 C44.6402793,26.3484912 44.1076937,26.8850526 44.1076937,27.5461053 L44.1076937,27.7162105 C42.0569459,28.2515088 40.5329189,30.1115789 40.5329189,32.3368421 C40.5329189,34.9789474 42.6706622,37.1274386 45.2992387,37.1274386 C46.613527,37.1274386 47.6824685,38.2016842 47.6824685,39.522807 C47.6824685,40.8437895 46.613527,41.9181754 45.2992387,41.9181754 Z" id="Shape"></path>
                                    <path d="M41.7602117,55.0923509 L41.7483423,55.0923509 C41.0906396,55.0923509 40.5626622,55.6289123 40.5626622,56.2899649 C40.5626622,56.9510175 41.102509,57.4875789 41.7602117,57.4875789 C42.4179144,57.4875789 42.9517568,56.9510175 42.9517568,56.2899649 C42.9517568,55.6289123 42.4180541,55.0923509 41.7602117,55.0923509 Z" id="Shape"></path>
                                    <path d="M56.0593108,57.4877193 C56.7170135,57.4877193 57.2508559,56.9511579 57.2508559,56.2901053 C57.2508559,55.6290526 56.7170135,55.0924912 56.0593108,55.0924912 L56.0474414,55.0924912 C55.3897387,55.0924912 54.8617613,55.6290526 54.8617613,56.2901053 C54.8617613,56.9511579 55.4016081,57.4877193 56.0593108,57.4877193 Z" id="Shape"></path>
                                    <path d="M48.9097613,55.0923509 L48.8978919,55.0923509 C48.2401892,55.0923509 47.7122117,55.6289123 47.7122117,56.2899649 C47.7122117,56.9510175 48.2520586,57.4875789 48.9097613,57.4875789 C49.567464,57.4875789 50.1013063,56.9510175 50.1013063,56.2899649 C50.1013063,55.6289123 49.5676036,55.0923509 48.9097613,55.0923509 Z" id="Shape"></path>
                                    <path d="M44.1076937,14.3719298 L48.8740135,14.3719298 C49.532973,14.3719298 50.0655586,13.8353684 50.0655586,13.1743158 C50.0655586,12.5132632 49.532973,11.9767018 48.8740135,11.9767018 L44.1076937,11.9767018 C43.4487342,11.9767018 42.9161486,12.5132632 42.9161486,13.1743158 C42.916009,13.8353684 43.4487342,14.3719298 44.1076937,14.3719298 Z" id="Shape"></path>
                                    <path d="M27.4611126,55.0923509 L27.4492432,55.0923509 C26.7915405,55.0923509 26.2635631,55.6289123 26.2635631,56.2899649 C26.2635631,56.9510175 26.8034099,57.4875789 27.4611126,57.4875789 C28.1188153,57.4875789 28.6526577,56.9510175 28.6526577,56.2899649 C28.6526577,55.6289123 28.1188153,55.0923509 27.4611126,55.0923509 Z" id="Shape"></path>
                                    <path d="M13.1262658,40.7204211 L15.5094955,40.7204211 C16.168455,40.7204211 16.7010405,40.1838596 16.7010405,39.522807 C16.7010405,38.8617544 16.168455,38.325193 15.5094955,38.325193 L13.1262658,38.325193 C12.4673063,38.325193 11.9347207,38.8617544 11.9347207,39.522807 C11.9347207,40.1838596 12.4673063,40.7204211 13.1262658,40.7204211 Z" id="Shape"></path>
                                    <path d="M13.1262658,47.906386 L15.5094955,47.906386 C16.168455,47.906386 16.7010405,47.3698246 16.7010405,46.7087719 C16.7010405,46.0477193 16.168455,45.5111579 15.5094955,45.5111579 L13.1262658,45.5111579 C12.4673063,45.5111579 11.9347207,46.0477193 11.9347207,46.7087719 C11.9347207,47.3698246 12.4673063,47.906386 13.1262658,47.906386 Z" id="Shape"></path>
                                    <path d="M60.7898829,0 L1.2103964,0 C0.551436937,0 0.0188513514,0.536561404 0.0188513514,1.19761404 L0.0188513514,70.6618947 C0.0188513514,71.1456842 0.308463964,71.5828772 0.754054054,71.7685614 C0.901792793,71.829614 1.05665315,71.8595088 1.2103964,71.8595088 C1.52025676,71.8595088 1.82522973,71.7374035 2.05284234,71.5086316 L8.35994595,65.1694035 L14.6670495,71.5086316 C15.133027,71.9769825 15.8861036,71.9769825 16.3519414,71.5086316 L20.2758153,67.5647719 L24.1996892,71.5086316 C24.6656667,71.9769825 25.4187432,71.9769825 25.8845811,71.5086316 L29.808455,67.5647719 L31.3492387,69.1134035 C31.8152162,69.581614 32.5682928,69.581614 33.0341306,69.1134035 L36.9580045,65.1695439 L40.8818784,69.1134035 C41.3478559,69.581614 42.1009324,69.581614 42.5667703,69.1134035 L45.2990991,66.3671579 L48.0314279,69.1134035 C48.4974054,69.581614 49.250482,69.581614 49.7163198,69.1134035 L56.0234234,62.7741754 L59.9472973,66.7180351 C59.9711757,66.7431579 59.9961712,66.7658947 60.0224234,66.7875088 C60.0224234,66.7887719 60.0235405,66.7887719 60.0235405,66.7887719 L60.0235405,66.7900351 C60.2188964,66.9541053 60.4667568,67.0558596 60.7373784,67.0679298 C60.7815045,67.069193 60.825491,67.069193 60.871991,67.0666667 L60.8732477,67.0666667 C61.1139865,67.0487018 61.3355946,66.9612632 61.5154505,66.821193 C61.5798243,66.7720702 61.6381937,66.7157895 61.6905586,66.6547368 C61.8705541,66.445193 61.9801712,66.1733333 61.9812883,65.8738246 L61.9812883,65.8714386 L61.9812883,1.19761404 C61.9815676,0.536561404 61.4488423,0 60.7898829,0 Z M59.5983378,62.9802105 L56.866009,60.2339649 C56.4000315,59.7657544 55.646955,59.7657544 55.1811171,60.2339649 L48.8740135,66.573193 L46.1416847,63.8269474 C45.6758468,63.3585965 44.9226306,63.3585965 44.4567928,63.8269474 L41.724464,66.573193 L37.8005901,62.6293333 C37.3347523,62.1609825 36.581536,62.1609825 36.1156982,62.6293333 L32.1918243,66.573193 L30.6510405,65.0245614 C30.1850631,64.5562105 29.4319865,64.5562105 28.9661486,65.0245614 L25.0422748,68.9684211 L21.1184009,65.0245614 C20.8860405,64.7910175 20.5809279,64.6736842 20.275955,64.6736842 C19.9708423,64.6736842 19.6658694,64.7910175 19.433509,65.0245614 L15.5096351,68.9684211 L9.20253153,62.629193 C8.73655405,62.1608421 7.98347748,62.1608421 7.51763964,62.629193 L2.40208108,67.770807 L2.40208108,2.39536842 L59.5984775,2.39536842 L59.5984775,62.9802105 L59.5983378,62.9802105 Z" id="Shape"></path>
                                    <path d="M6.01246396,57.4877193 C6.67016667,57.4877193 7.20400901,56.9511579 7.20400901,56.2901053 C7.20400901,55.6290526 6.67016667,55.0924912 6.01246396,55.0924912 L6.00059459,55.0924912 C5.34289189,55.0924912 4.81491441,55.6290526 4.81491441,56.2901053 C4.81491441,56.9511579 5.35476126,57.4877193 6.01246396,57.4877193 Z" id="Shape"></path>
                                    <path d="M13.1262658,33.5344561 L15.5094955,33.5344561 C16.168455,33.5344561 16.7010405,32.9978947 16.7010405,32.3368421 C16.7010405,31.6757895 16.168455,31.1392281 15.5094955,31.1392281 L13.1262658,31.1392281 C12.4673063,31.1392281 11.9347207,31.6757895 11.9347207,32.3368421 C11.9347207,32.9978947 12.4673063,33.5344561 13.1262658,33.5344561 Z" id="Shape"></path>
                                    <path d="M34.6106622,57.4877193 C35.2683649,57.4877193 35.8022072,56.9511579 35.8022072,56.2901053 C35.8022072,55.6290526 35.2683649,55.0924912 34.6106622,55.0924912 L34.5987928,55.0924912 C33.9410901,55.0924912 33.4131126,55.6290526 33.4131126,56.2901053 C33.4131126,56.9511579 33.9529595,57.4877193 34.6106622,57.4877193 Z" id="Shape"></path>
                                    <path d="M20.2758153,26.3484912 L27.4253649,26.3484912 C28.0843243,26.3484912 28.6169099,25.8119298 28.6169099,25.1508772 C28.6169099,24.4898246 28.0843243,23.9532632 27.4253649,23.9532632 L20.2758153,23.9532632 C19.6168559,23.9532632 19.0842703,24.4898246 19.0842703,25.1508772 C19.0842703,25.8119298 19.6168559,26.3484912 20.2758153,26.3484912 Z" id="Shape"></path>
                                    <path d="M13.1262658,26.3484912 L15.5094955,26.3484912 C16.168455,26.3484912 16.7010405,25.8119298 16.7010405,25.1508772 C16.7010405,24.4898246 16.168455,23.9532632 15.5094955,23.9532632 L13.1262658,23.9532632 C12.4673063,23.9532632 11.9347207,24.4898246 11.9347207,25.1508772 C11.9347207,25.8119298 12.4673063,26.3484912 13.1262658,26.3484912 Z" id="Shape"></path>
                                    <path d="M32.1916847,31.1392281 L20.2758153,31.1392281 C19.6168559,31.1392281 19.0842703,31.6757895 19.0842703,32.3368421 C19.0842703,32.9978947 19.6168559,33.5344561 20.2758153,33.5344561 L32.1916847,33.5344561 C32.8506441,33.5344561 33.3832297,32.9978947 33.3832297,32.3368421 C33.3832297,31.6757895 32.8506441,31.1392281 32.1916847,31.1392281 Z" id="Shape"></path>
                                    <path d="M13.1262658,14.3719298 L32.1916847,14.3719298 C32.8506441,14.3719298 33.3832297,13.8353684 33.3832297,13.1743158 C33.3832297,12.5132632 32.8506441,11.9767018 32.1916847,11.9767018 L13.1262658,11.9767018 C12.4673063,11.9767018 11.9347207,12.5132632 11.9347207,13.1743158 C11.9347207,13.8353684 12.4673063,14.3719298 13.1262658,14.3719298 Z" id="Shape"></path>
                                </g>
                            </g>
                        </g>
                    </g>
                </g>
            </g>
        </g>
    </g>
</svg>