<?xml version="1.0" encoding="UTF-8"?>
<svg width="23px" height="14px" viewBox="0 0 23 14" version="1.1" xmlns="http://www.w3.org/2000/svg" xmlns:xlink="http://www.w3.org/1999/xlink">
    <!-- Generator: Sketch 42 (36781) - http://www.bohemiancoding.com/sketch -->
    <title>livestock</title>
    <desc>Created with Sketch.</desc>
    <defs></defs>
    <g id="Screens-Only-Copy-3" stroke="none" stroke-width="1" fill="none" fill-rule="evenodd">
        <g id="Farmer-Profile---Agricultural-Info" transform="translate(-17.000000, -494.000000)" fill="#727272">
            <g id="Workarea">
                <g id="Group-6" transform="translate(17.000000, 357.000000)">
                    <g id="Group-5" transform="translate(0.000000, 44.000000)">
                        <g id="row" transform="translate(0.000000, 90.000000)">
                            <g id="livestock" transform="translate(0.000000, 3.000000)">
                                <g id="Capa_1">
                                    <path d="M0,7.71717647 L0.232705882,9.44082353 C0.232705882,9.44082353 0.937588235,9.49223529 1.35023529,9.44082353 C2.24588235,10.5948824 4.26852941,10.6205882 5.635,11.3024706 C5.62417647,12.3550588 4.42141176,12.6865294 4.33076471,13.3535294 C4.49717647,13.4184706 4.65411765,13.0829412 4.80023529,13.1032353 C4.93688235,13.1248824 5.06270588,13.5064118 5.18311765,13.4942353 C6.23164706,13.3995294 6.72411765,12.1832353 6.93923529,11.1157647 C8.75082353,11.3444118 7.72529412,12.6134706 7.31129412,13.4468824 C7.52370588,13.3778824 8.04188235,13.0815882 8.23670588,13.1140588 C8.23670588,13.1140588 8.47482353,13.5321176 8.89558824,13.2601765 C8.89694118,12.5322941 9.32852941,11.7881765 9.08094118,11.1157647 C11.0454118,11.0372941 13.3048235,10.8492353 15.1367059,9.99958824 C15.8984118,9.64511765 16.6871765,8.809 16.9983529,9.81152941 C17.5165294,11.4783529 15.6142941,12.5255294 15.3234118,13.2601765 C15.4086471,13.2804706 15.7482353,13.0382941 15.8294118,13.0531765 C15.9146471,13.0667059 15.9295294,13.34 15.8212941,13.34 C17.4285882,13.4509412 17.8547647,11.8652941 18.1172353,10.465 C19.2252941,11.1617647 18.2971765,12.4565294 17.9318824,13.2601765 C18.3323529,13.1776471 18.2254706,13.1925294 18.3972941,13.4468824 C19.8665882,13.7715882 20.0302941,11.4269412 19.7935294,10.1862941 C19.7015294,9.68841176 19.2469412,9.55311765 19.2347647,9.15941176 C19.2212353,8.65070588 19.7028824,8.47347059 19.8868824,8.13658824 C20.2237647,7.52235294 20.1412353,6.96358824 20.4456471,6.45758824 C20.9976471,6.59017647 21.0138824,7.25717647 21.0977647,7.85652941 C21.4305882,7.66305882 21.2465882,6.992 21.1897647,6.64564706 C21.9257647,6.45082353 22.5494706,5.20205882 21.6565294,4.50394118 C21.1518824,4.24011765 20.6607647,4.56347059 20.5376471,4.96935294 C19.711,4.24823529 19.6744706,3.50141176 19.0480588,2.91964706 C16.9293529,0.959235294 14.8079412,0.265176471 11.0819412,0.543882353 C7.35729412,0.823941176 3.91270588,4.56482353 3.67594118,4.59594118 C3.84235294,4.57294118 2.28376471,4.12241176 1.90629412,4.03717647 C1.49905882,3.94517647 1.19194118,3.78282353 0.974117647,3.75711765 C0.924058824,4.62029412 2.36764706,5.29270588 2.46641176,5.99217647 C2.64364706,7.25041176 0,7.71717647 0,7.71717647 Z M20.7270588,5.34141176 C21.1681176,4.55264706 21.9460588,5.82847059 21.0991176,5.99352941 C20.9516471,5.80005882 20.7947059,5.61335294 20.7270588,5.34141176 Z M3.15370588,6.70923529 C3.15370588,6.40076471 3.40264706,6.15317647 3.70976471,6.15317647 C4.01688235,6.15317647 4.26582353,6.40211765 4.26582353,6.70923529 C4.26582353,7.01635294 4.01552941,7.26529412 3.70976471,7.26529412 C3.40264706,7.26529412 3.15370588,7.01635294 3.15370588,6.70923529 Z" id="Shape"></path>
                                </g>
                            </g>
                        </g>
                    </g>
                </g>
            </g>
        </g>
    </g>
</svg>