<?xml version="1.0" encoding="UTF-8"?>
<svg width="20px" height="17px" viewBox="0 0 20 17" version="1.1" xmlns="http://www.w3.org/2000/svg" xmlns:xlink="http://www.w3.org/1999/xlink">
    <!-- Generator: Sketch 42 (36781) - http://www.bohemiancoding.com/sketch -->
    <title>plant-with-leaves</title>
    <desc>Created with Sketch.</desc>
    <defs></defs>
    <g id="Screens-Only-Copy-3" stroke="none" stroke-width="1" fill="none" fill-rule="evenodd">
        <g id="Farmer-Profile---Agricultural-Info" transform="translate(-18.000000, -537.000000)" fill="#727272">
            <g id="Workarea">
                <g id="Group-6" transform="translate(17.000000, 357.000000)">
                    <g id="Group-5" transform="translate(0.000000, 44.000000)">
                        <g id="row" transform="translate(1.000000, 135.000000)">
                            <g id="plant-with-leaves" transform="translate(0.000000, 1.000000)">
                                <g id="Capa_1">
                                    <path d="M14.1971585,2.12283136 C12.0625137,2.68236126 11.3206193,4.51715383 11.4440073,5.28391164 C11.483133,5.26034483 11.5214208,5.23761449 11.5609836,5.212993 C11.748561,5.0981048 11.9527505,4.98939925 12.1645902,4.87731142 C12.3751548,4.7645326 12.6019308,4.65986395 12.8303097,4.5537042 C12.945173,4.50020609 13.0655738,4.45325431 13.1846995,4.40484779 L13.3642259,4.33178341 C13.4416393,4.30141568 13.4892896,4.2889049 13.5531148,4.26661099 L13.9130055,4.14706762 C14.0381056,4.11142645 14.1622951,4.0765854 14.2852459,4.04174434 C14.5340984,3.97315329 14.7744627,3.91263605 15.0084153,3.86444774 C15.4759199,3.75828798 15.9153734,3.68100485 16.2935155,3.62259698 C17.0507468,3.50749057 17.5667395,3.48563308 17.5667395,3.48563308 C17.5667395,3.48563308 17.4489253,3.53618534 17.2421494,3.62426994 C17.0345719,3.71049973 16.7385064,3.8247333 16.3820036,3.96147899 C16.2024772,4.0266514 16.0097996,4.09757004 15.8056102,4.17230738 C15.60102,4.24493534 15.3848816,4.32094558 15.1620036,4.39971983 C14.9412022,4.47743939 14.7144991,4.55854122 14.4826594,4.64113416 C14.2559199,4.71758082 14.0193807,4.80802936 13.7820401,4.89891433 C13.5608379,4.98150727 13.3311111,5.09152209 13.1056831,5.18069774 C12.8819308,5.28238416 12.4982149,5.41556573 12.281275,5.50812365 C12.0196357,5.61770205 11.8541348,5.67694639 11.6878324,5.76484914 C9.82568306,6.84968615 9.00061931,8.77009025 8.49737705,10.8021821 C8.408051,8.89323411 8.00688525,7.04120286 6.62648452,5.67523707 C6.62775956,5.67440059 6.62965392,5.67396417 6.63096539,5.67290948 C6.44400729,5.49815867 6.24979964,5.31024246 6.0498725,5.10894262 C5.88568306,4.93993804 5.71213115,4.77195178 5.54324226,4.59276401 C5.36990893,4.42415948 5.19952641,4.23540679 5.02575592,4.07443966 C4.84051002,3.89968885 4.65759563,3.72664736 4.47679417,3.56866245 C4.29428051,3.40514952 4.11584699,3.24378233 3.94185792,3.08728852 C3.76553734,2.92952182 3.59515483,2.77728314 3.43395264,2.63202721 C3.27420765,2.48506196 3.1217122,2.34577047 2.98240437,2.2170986 C2.70484517,1.95571794 2.47406193,1.73659752 2.31581056,1.57773976 C2.15901639,1.41742726 2.06969035,1.32570582 2.06969035,1.32570582 C2.06969035,1.32570582 2.53763206,1.54271686 3.19362477,1.93746094 C3.5207286,2.13577856 3.89701275,2.37446525 4.28921676,2.65072064 C4.48681239,2.78513874 4.68590164,2.93250404 4.88943534,3.09027074 C4.98961749,3.16988147 5.09147541,3.24909213 5.19253188,3.32913928 L5.47967213,3.5769181 C5.53009107,3.62216056 5.56943534,3.65121902 5.62899818,3.70919046 L5.7676867,3.84531789 C5.86,3.93576643 5.95275046,4.0253785 6.03803279,4.11797279 C6.21009107,4.30272495 6.37832423,4.48638605 6.53041894,4.67070178 C6.68313297,4.85501751 6.8301275,5.0333688 6.95941712,5.21091999 C6.98684882,5.24914332 7.01260474,5.28394801 7.04003643,5.32089844 C7.44819672,4.6594639 7.46415301,2.68065194 5.7045173,1.34949084 C3.78834244,-0.0986678341 1.11814208,0.551092403 0,0.0153475216 C1.12899818,1.73954337 0.912240437,2.89064386 2.80888889,4.7827896 C4.07635701,6.04874192 5.26003643,6.12711611 6.05741348,5.90690463 C7.67923497,7.46547818 7.93234973,9.84154364 7.93318761,12.1153044 C7.76728597,11.9811045 7.56564663,11.8757813 7.33296903,11.8757813 C6.67657559,11.8757813 6.19861566,12.2443763 5.96954463,12.7701563 C4.52469945,12.2792174 3.56502732,13.4203165 3.48185792,14.3813914 C2.79442623,14.1261571 1.92233151,14.9156088 1.92233151,15.6015194 C1.92233151,16.2788834 2.45854281,16.8271026 3.13023679,16.8555792 L13.7657559,16.8742726 C13.7657559,16.8742726 14.89898,16.2644087 14.89898,15.601083 C14.89898,14.9058984 14.3344991,14.3414588 13.6381421,14.3414588 C13.5415665,14.3414588 13.4492168,14.3541878 13.3599271,14.3745541 C13.3658652,14.3257476 13.2382514,12.187896 11.3775592,13.0465935 C11.2329326,12.3777034 11.0432058,11.8757813 9.92528233,11.8757813 C9.37460838,11.8757813 9.0017122,12.0753718 8.76309654,12.2783446 C9.22870674,9.91369881 9.94826958,7.44336611 12.0454645,6.22138335 C12.0684517,6.20843615 12.0803643,6.19101563 12.0965027,6.17530442 C12.7448087,6.69446525 13.8780692,7.09557381 15.5600729,6.39824353 C18.0358834,5.37159617 18.2753734,4.22536907 19.9782149,3.06237608 C18.7412022,3.13165814 16.5214936,1.51384025 14.1971585,2.12283136 Z M8.40112933,12.6808757 L8.50112933,12.6066797 C8.45068407,12.664603 8.41977783,12.7066797 8.41977783,12.7066797 C8.41977783,12.7066797 8.40966783,12.6921892 8.40112933,12.6808757 Z" id="Shape"></path>
                                </g>
                            </g>
                        </g>
                    </g>
                </g>
            </g>
        </g>
    </g>
</svg>