<?xml version="1.0" encoding="UTF-8"?>
<svg width="20px" height="15px" viewBox="0 0 20 15" version="1.1" xmlns="http://www.w3.org/2000/svg" xmlns:xlink="http://www.w3.org/1999/xlink">
    <!-- Generator: Sketch 42 (36781) - http://www.bohemiancoding.com/sketch -->
    <title>receipt-book</title>
    <desc>Created with Sketch.</desc>
    <defs></defs>
    <g id="Screens-Only-Copy-3" stroke="none" stroke-width="1" fill="none" fill-rule="evenodd">
        <g id="Farmer-Profile---Agricultural-Info" transform="translate(-17.000000, -404.000000)" fill="#727272">
            <g id="Workarea">
                <g id="Group-6" transform="translate(17.000000, 357.000000)">
                    <g id="Group-5" transform="translate(0.000000, 44.000000)">
                        <g id="row">
                            <g id="receipt-book" transform="translate(0.000000, 3.000000)">
                                <g id="Capa_1">
                                    <path d="M20,13.5751119 L20,6.75923127 L15.3629925,6.75923127 L15.3629925,0 C10.7262537,5.22324997 0.167664188,6.75923127 0.167664188,6.75923127 L0,6.75923127 L0,13.5751119 L0.0105237939,13.5751119 L0.0105237939,14.9718656 L0.234389519,14.9718656 L1.23956857,14.9718656 L19.8994194,14.9718656 L19.8994194,14.7150851 L1.23956857,14.7150851 L1.23956857,14.2600094 L19.8325149,14.2600094 L19.8325149,14.0223955 L1.23956857,14.0223955 L1.23956857,13.5751119 L20,13.5751119 L20,13.5751119 Z M19.664806,7.09424617 L19.664806,13.2393805 L1.49979736,13.2393805 C10.3855963,11.9597319 15.3629477,7.59741786 15.3629477,7.59741786 L15.3629477,7.09424617 L19.664806,7.09424617 Z" id="Shape"></path>
                                </g>
                            </g>
                        </g>
                    </g>
                </g>
            </g>
        </g>
    </g>
</svg>