<?xml version="1.0" encoding="UTF-8"?>
<svg width="71px" height="61px" viewBox="0 0 71 61" version="1.1" xmlns="http://www.w3.org/2000/svg" xmlns:xlink="http://www.w3.org/1999/xlink">
    <!-- Generator: Sketch 42 (36781) - http://www.bohemiancoding.com/sketch -->
    <title>farmer ID</title>
    <desc>Created with Sketch.</desc>
    <defs></defs>
    <g id="Screens-Only-Copy-4" stroke="none" stroke-width="1" fill="none" fill-rule="evenodd">
        <g id="Farmer-Search" transform="translate(-62.000000, -278.000000)" fill="#757575">
            <g id="Workarea">
                <g id="Group-2" transform="translate(20.000000, 249.000000)">
                    <g id="btn-label" transform="translate(42.000000, 29.000000)">
                        <g id="farmer-ID">
                            <g id="farmer" transform="translate(8.000000, 27.000000)">
                                <g id="Capa_1">
                                    <g id="Group">
                                        <path d="M-0.286181287,11.8918673 L2.9060556,11.8918673 C2.88082392,12.158436 2.86730354,12.4266515 2.86730354,12.6949638 C2.86730354,17.2645065 6.52151834,20.9820366 11.0132347,20.9820366 C15.5048559,20.9820366 19.1590707,17.2645065 19.1590707,12.6949638 C19.1590707,12.4266515 19.1454551,12.158436 19.1202234,11.8918673 L22.2858956,11.8918673 C22.6803669,11.8918673 23,11.566696 23,11.1653899 C23,10.7640838 22.6803669,10.4389125 22.2858956,10.4389125 L18.8555288,10.4389125 L17.1979497,3.43131168 C17.0341818,2.73912404 16.6148597,2.16530377 16.0172972,1.81562599 C15.4195442,1.46604508 14.7214358,1.38584197 14.0506538,1.59012741 L11.0888346,2.49221859 L8.12711058,1.59012741 C7.45861369,1.38632629 6.75888663,1.46478585 6.15703948,1.81078281 C5.55509712,2.15668291 5.1279675,2.72575685 4.95439254,3.41339191 L3.18036689,10.4388156 L-0.285895646,10.4388156 C-0.680366891,10.4388156 -1,10.7639869 -1,11.165293 C-1,11.5665991 -0.680652533,11.8918673 -0.286181287,11.8918673 Z M7.72326864,4.14962601 C7.98358348,3.99997167 8.288268,3.96655371 8.58124122,4.05576513 L10.8837438,5.02033337 C11.0174241,5.0610161 11.1596737,5.0610161 11.2934493,5.02033337 L13.5752872,4.05576513 C13.8661657,3.96723176 14.16628,4.00035912 14.4202155,4.14894796 C14.6743414,4.29763367 14.8533436,4.5448297 14.9243732,4.84510702 L16.5099557,10.0856323 L5.53441389,10.0855355 L7.20140118,4.84878784 C7.20140118,4.84878784 7.46276337,4.29937721 7.72326864,4.14962601 Z M16.3695906,12.6949638 C16.3695906,16.4632504 14.1054336,18.5298341 11.0131395,18.5298341 C7.92084547,18.5298341 5.63548795,16.4633472 5.63548795,12.6949638 C5.63548795,12.4260703 5.65272166,12.1578548 5.68328533,11.8918673 L16.3217932,11.8918673 C16.3523569,12.1579517 16.3695906,12.426264 16.3695906,12.6949638 Z" id="Shape"></path>
                                    </g>
                                </g>
                            </g>
                            <g id="id-card-(2)" fill-rule="nonzero">
                                <g id="Capa_1">
                                    <g id="Group">
                                        <path d="M61.8765,47.2632692 C61.6623167,47.4849808 61.5333333,47.7911538 61.5333333,48.0961538 C61.5333333,48.4011538 61.6516667,48.7061538 61.8765,48.9290385 C62.10015,49.1401923 62.409,49.2692308 62.7166667,49.2692308 C63.0243333,49.2692308 63.332,49.1401923 63.5568333,48.9290385 C63.7698333,48.7061538 63.9,48.4011538 63.9,48.0961538 C63.9,47.7911538 63.7698333,47.4849808 63.5568333,47.2632692 C63.119,46.8409615 62.3261667,46.8292308 61.8765,47.2632692 Z" id="Shape"></path>
                                        <path d="M36.6833333,29.3480385 L48.5166667,29.3480385 C49.17105,29.3480385 49.7,28.8236731 49.7,28.1749615 C49.7,27.52625 49.17105,27.0018846 48.5166667,27.0018846 L36.6833333,27.0018846 C36.02895,27.0018846 35.5,27.52625 35.5,28.1749615 C35.5,28.8236731 36.02895,29.3480385 36.6833333,29.3480385 Z" id="Shape"></path>
                                        <path d="M37.8666667,46.9441923 L36.6833333,46.9441923 C36.02895,46.9441923 35.5,47.4685577 35.5,48.1172692 C35.5,48.7659808 36.02895,49.2903462 36.6833333,49.2903462 L37.8666667,49.2903462 C38.52105,49.2903462 39.05,48.7659808 39.05,48.1172692 C39.05,47.4685577 38.52105,46.9441923 37.8666667,46.9441923 Z" id="Shape"></path>
                                        <path d="M44.9666667,46.9441923 L42.6,46.9441923 C41.9456167,46.9441923 41.4166667,47.4685577 41.4166667,48.1172692 C41.4166667,48.7659808 41.9456167,49.2903462 42.6,49.2903462 L44.9666667,49.2903462 C45.62105,49.2903462 46.15,48.7659808 46.15,48.1172692 C46.15,47.4685577 45.62105,46.9441923 44.9666667,46.9441923 Z" id="Shape"></path>
                                        <path d="M50.8833333,46.9441923 L49.7,46.9441923 C49.0456167,46.9441923 48.5166667,47.4685577 48.5166667,48.1172692 C48.5166667,48.7659808 49.0456167,49.2903462 49.7,49.2903462 L50.8833333,49.2903462 C51.5377167,49.2903462 52.0666667,48.7659808 52.0666667,48.1172692 C52.0666667,47.4685577 51.5377167,46.9441923 50.8833333,46.9441923 Z" id="Shape"></path>
                                        <path d="M57.9833333,46.9441923 L55.6166667,46.9441923 C54.9622833,46.9441923 54.4333333,47.4685577 54.4333333,48.1172692 C54.4333333,48.7659808 54.9622833,49.2903462 55.6166667,49.2903462 L57.9833333,49.2903462 C58.6377167,49.2903462 59.1666667,48.7659808 59.1666667,48.1172692 C59.1666667,47.4685577 58.6377167,46.9441923 57.9833333,46.9441923 Z" id="Shape"></path>
                                        <path d="M62.7166667,34.0403462 L36.6833333,34.0403462 C36.02895,34.0403462 35.5,34.5647115 35.5,35.2134231 C35.5,35.8621346 36.02895,36.3865 36.6833333,36.3865 L62.7166667,36.3865 C63.37105,36.3865 63.9,35.8621346 63.9,35.2134231 C63.9,34.5647115 63.37105,34.0403462 62.7166667,34.0403462 Z" id="Shape"></path>
                                        <path d="M62.7166667,41.0788077 L36.6833333,41.0788077 C36.02895,41.0788077 35.5,41.6031731 35.5,42.2518846 C35.5,42.9005962 36.02895,43.4249615 36.6833333,43.4249615 L62.7166667,43.4249615 C63.37105,43.4249615 63.9,42.9005962 63.9,42.2518846 C63.9,41.6031731 63.37105,41.0788077 62.7166667,41.0788077 Z" id="Shape"></path>
                                        <path d="M65.4643667,11.7307692 L43.7833333,11.7307692 L43.7833333,2.71332692 C43.7833333,1.21648077 42.5562167,0 41.0462833,0 L29.9525333,0 C28.4437833,0 27.2166667,1.21648077 27.2166667,2.71332692 L27.2166667,11.7307692 L5.53563333,11.7307692 C2.48381667,11.7307692 0,14.1930577 0,17.2184231 L0,55.5135192 C0,58.5377115 2.48381667,61 5.53563333,61 L65.46555,61 C68.5161833,61 71,58.5377115 71,55.5123462 L71,17.2184231 C71,14.1930577 68.5161833,11.7307692 65.4643667,11.7307692 Z M29.5833333,2.71332692 C29.5833333,2.51155769 29.7501833,2.34615385 29.9525333,2.34615385 L41.0462833,2.34615385 C41.2498167,2.34615385 41.4166667,2.51155769 41.4166667,2.71332692 L41.4166667,11.7307692 L41.4166667,18.4032308 C41.4166667,18.6038269 41.2498167,18.7692308 41.0462833,18.7692308 L29.9525333,18.7692308 C29.7501833,18.7692308 29.5833333,18.6038269 29.5833333,18.4032308 L29.5833333,11.7307692 L29.5833333,2.71332692 Z M68.6333333,55.5123462 C68.6333333,57.2449808 67.21215,58.6538462 65.4643667,58.6538462 L5.53563333,58.6538462 C3.78785,58.6538462 2.36666667,57.2449808 2.36666667,55.5123462 L2.36666667,17.2184231 C2.36666667,15.4857885 3.78785,14.0769231 5.53563333,14.0769231 L27.2166667,14.0769231 L27.2166667,18.4032308 C27.2166667,19.8989038 28.4437833,21.1153846 29.9525333,21.1153846 L41.0462833,21.1153846 C42.5562167,21.1153846 43.7833333,19.8989038 43.7833333,18.4032308 L43.7833333,14.0769231 L65.4643667,14.0769231 C67.21215,14.0769231 68.6333333,15.4857885 68.6333333,17.2184231 L68.6333333,55.5123462 Z" id="Shape"></path>
                                        <path d="M35.5,12.9038462 C38.1104333,12.9038462 40.2333333,10.7993462 40.2333333,8.21153846 C40.2333333,5.62373077 38.1104333,3.51923077 35.5,3.51923077 C32.8895667,3.51923077 30.7666667,5.62373077 30.7666667,8.21153846 C30.7666667,10.7993462 32.8895667,12.9038462 35.5,12.9038462 Z M35.5,5.86538462 C36.8052167,5.86538462 37.8666667,6.91763462 37.8666667,8.21153846 C37.8666667,9.50544231 36.8052167,10.5576923 35.5,10.5576923 C34.1947833,10.5576923 33.1333333,9.50544231 33.1333333,8.21153846 C33.1333333,6.91763462 34.1947833,5.86538462 35.5,5.86538462 Z" id="Shape"></path>
                                    </g>
                                </g>
                            </g>
                        </g>
                    </g>
                </g>
            </g>
        </g>
    </g>
</svg>